<svg width="24" height="24" viewBox="0 0 24 24" fill="none" xmlns="http://www.w3.org/2000/svg">
<path d="M10.6309 16.022L10.1307 16.5222" stroke="#FF7C00" stroke-width="1.5" stroke-linecap="round" stroke-linejoin="round"/>
<path d="M13.7764 15.5293L13.2762 16.0295" stroke="#FF7C00" stroke-width="1.5" stroke-linecap="round" stroke-linejoin="round"/>
<path d="M11.1236 12.8764L10.6234 13.3767" stroke="#FF7C00" stroke-width="1.5" stroke-linecap="round" stroke-linejoin="round"/>
<path fill-rule="evenodd" clip-rule="evenodd" d="M7.82435 21.0037H8.19928C11.2088 21.0034 14.095 19.8074 16.2226 17.6789V17.6789C16.8237 17.078 17.2333 16.3124 17.3997 15.4789V15.4789C17.681 14.069 17.2393 12.6118 16.2226 11.5953L12.4027 7.77529C11.3852 6.75721 9.92605 6.31542 8.51478 6.59818V6.59818C7.68277 6.76537 6.9188 7.17492 6.31901 7.77529V7.77529C4.19177 9.90275 2.9966 12.788 2.99634 15.7965V16.1714C2.99526 17.4529 3.50344 18.6822 4.40902 19.5889V19.5889C5.3148 20.4947 6.54333 21.0037 7.82435 21.0037V21.0037Z" stroke="#FF7C00" stroke-width="1.5" stroke-linecap="round" stroke-linejoin="round"/>
<path d="M14.4619 9.49999C16.001 11.0391 18.3447 11.4374 20.3059 10.4932C20.7153 10.2835 20.9813 9.87089 21.0032 9.41145C21.0251 8.95202 20.7996 8.51594 20.4121 8.26825C19.9838 7.98554 19.5148 7.76999 19.0214 7.62908L19.0131 7.62595L19.0214 7.62908L19.0131 7.62595L19.0214 7.62908L19.0251 7.62101L19.0214 7.62908L19.0251 7.62101C19.3449 7.04552 19.5486 6.41286 19.6248 5.7589C19.6633 5.38145 19.53 5.00672 19.2617 4.73844C18.9934 4.47016 18.6187 4.33682 18.2412 4.37532C17.5873 4.45149 16.9546 4.65526 16.3791 4.97508L16.3711 4.97873L16.3791 4.97508L16.3711 4.97873L16.3742 4.987L16.3711 4.97873L16.3742 4.987L16.3711 4.97873C16.2301 4.48531 16.0146 4.01634 15.7319 3.58808C15.4842 3.20051 15.0481 2.97503 14.5887 2.99695C14.1292 3.01887 13.7166 3.28485 13.507 3.69425C12.5628 5.65535 12.961 7.999 14.5 9.53812" stroke="#FF7C00" stroke-width="1.5" stroke-linecap="round" stroke-linejoin="round"/>
<path d="M8.47077 10.2237L7.97056 10.7239" stroke="#FF7C00" stroke-width="1.5" stroke-linecap="round" stroke-linejoin="round"/>
<path d="M7.9781 13.3692L7.47789 13.8695" stroke="#FF7C00" stroke-width="1.5" stroke-linecap="round" stroke-linejoin="round"/>
<path d="M7.55134 16.4488L7.05113 16.949" stroke="#FF7C00" stroke-width="1.5" stroke-linecap="round" stroke-linejoin="round"/>
</svg>
