<svg width="41" height="44" viewBox="0 0 41 44" fill="none" xmlns="http://www.w3.org/2000/svg">
<g filter="url(#filter0_d_6_513)">
<path fill-rule="evenodd" clip-rule="evenodd" d="M9.97886 16.8376C13.0322 23.4862 18.4655 28.7721 25.2199 31.6363L25.2412 31.6453L26.5461 32.2269C28.2076 32.9672 30.1606 32.4414 31.226 30.967L33.403 27.9539C33.536 27.7699 33.5017 27.514 33.325 27.3714L29.5244 24.3053C29.3355 24.1529 29.0576 24.1884 28.9131 24.3834L27.4339 26.3794C27.0747 26.8641 26.4259 27.0326 25.8763 26.7838C20.8257 24.4982 16.7672 20.4397 14.4816 15.3891C14.2328 14.8395 14.4013 14.1907 14.886 13.8315L16.882 12.3523C17.077 12.2078 17.1125 11.93 16.9601 11.741L13.8936 7.93991C13.7511 7.76325 13.4952 7.72893 13.3112 7.86179L10.2818 10.0487C8.79765 11.1202 8.27497 13.0896 9.03255 14.756L9.97784 16.8353C9.97818 16.8361 9.97852 16.8368 9.97886 16.8376ZM24.2087 33.9908C16.8697 30.8755 10.9667 25.1304 7.64908 17.9046L7.64708 17.9002L6.6998 15.8165C5.43718 13.0392 6.3083 9.7568 8.78194 7.97106L11.8113 5.78412C13.0996 4.85409 14.8903 5.09429 15.888 6.33094L18.9545 10.1321C20.0215 11.4546 19.773 13.3994 18.4077 14.4111L17.264 15.2587C19.196 19.0075 22.258 22.0694 26.0067 24.0014L26.8543 22.8577C27.8661 21.4924 29.8108 21.2439 31.1334 22.3109L34.934 25.377C36.171 26.375 36.4109 28.1664 35.4801 29.4547L33.303 32.4677C31.5275 34.9251 28.2725 35.8014 25.5032 34.5676L24.2087 33.9908Z" fill="white"/>
</g>
<defs>
<filter id="filter0_d_6_513" x="-4" y="0" width="49" height="49" filterUnits="userSpaceOnUse" color-interpolation-filters="sRGB">
<feFlood flood-opacity="0" result="BackgroundImageFix"/>
<feColorMatrix in="SourceAlpha" type="matrix" values="0 0 0 0 0 0 0 0 0 0 0 0 0 0 0 0 0 0 127 0" result="hardAlpha"/>
<feOffset dy="4"/>
<feGaussianBlur stdDeviation="2"/>
<feComposite in2="hardAlpha" operator="out"/>
<feColorMatrix type="matrix" values="0 0 0 0 0 0 0 0 0 0 0 0 0 0 0 0 0 0 0.25 0"/>
<feBlend mode="normal" in2="BackgroundImageFix" result="effect1_dropShadow_6_513"/>
<feBlend mode="normal" in="SourceGraphic" in2="effect1_dropShadow_6_513" result="shape"/>
</filter>
</defs>
</svg>
