<svg width="36" height="36" viewBox="0 0 36 36" fill="none" xmlns="http://www.w3.org/2000/svg">
<path d="M14.999 19.8753C15.6203 19.8753 16.124 20.379 16.124 21.0003V24.0003C16.124 24.6216 15.6203 25.1253 14.999 25.1253C14.3777 25.1253 13.874 24.6216 13.874 24.0003V21.0003C13.874 20.379 14.3777 19.8753 14.999 19.8753Z" fill="#FF7C00"/>
<path d="M22.124 21.0003C22.124 20.379 21.6203 19.8753 20.999 19.8753C20.3777 19.8753 19.874 20.379 19.874 21.0003V24.0003C19.874 24.6216 20.3777 25.1253 20.999 25.1253C21.6203 25.1253 22.124 24.6216 22.124 24.0003V21.0003Z" fill="#FF7C00"/>
<path fill-rule="evenodd" clip-rule="evenodd" d="M14.4733 5.06281C14.784 4.52473 14.5996 3.83669 14.0615 3.52603C13.5234 3.21537 12.8354 3.39973 12.5247 3.93781L9.52474 9.13396C9.4798 9.21181 9.44522 9.29279 9.42057 9.37531H8.99902C6.72085 9.37531 4.87402 11.2221 4.87402 13.5003C4.87402 14.789 5.46497 15.9397 6.39067 16.6961L7.39107 23.5732L8.06119 26.7129C8.46269 28.5941 9.99838 30.0229 11.9036 30.288C15.9477 30.8507 20.0503 30.8507 24.0945 30.288C25.9997 30.0229 27.5354 28.5941 27.9369 26.7129L28.607 23.5732L29.6074 16.6961C30.5331 15.9397 31.124 14.789 31.124 13.5003C31.124 11.2221 29.2772 9.37531 26.999 9.37531H26.5775C26.5528 9.29279 26.5182 9.21181 26.4733 9.13396L23.4733 3.93781C23.1626 3.39973 22.4746 3.21537 21.9365 3.52603C21.3984 3.83669 21.2141 4.52473 21.5247 5.06281L24.0146 9.37531H11.9835L14.4733 5.06281ZM27.1992 17.6205C27.1329 17.6237 27.0661 17.6253 26.999 17.6253H8.99902C8.9319 17.6253 8.86516 17.6237 8.79883 17.6205L9.60697 23.1759L10.2616 26.2432C10.4656 27.1989 11.2458 27.9248 12.2136 28.0595C16.0521 28.5936 19.946 28.5936 23.7844 28.0595C24.7523 27.9248 25.5325 27.1989 25.7364 26.2432L26.3911 23.176L27.1992 17.6205ZM7.12402 13.5003C7.12402 12.4648 7.96349 11.6253 8.99902 11.6253H26.999C28.0346 11.6253 28.874 12.4648 28.874 13.5003C28.874 14.5358 28.0346 15.3753 26.999 15.3753H8.99902C7.96349 15.3753 7.12402 14.5358 7.12402 13.5003Z" fill="#FF7C00"/>
</svg>
