<svg width="24" height="24" viewBox="0 0 24 24" fill="none" xmlns="http://www.w3.org/2000/svg">
<path d="M12.2063 12.2061L15.9979 15.9976" stroke="#FF7C00" stroke-width="1.5" stroke-linecap="round" stroke-linejoin="round"/>
<path d="M10.4995 13.0414V17.6863" stroke="#FF7C00" stroke-width="1.5" stroke-linecap="round" stroke-linejoin="round"/>
<path fill-rule="evenodd" clip-rule="evenodd" d="M3.71276 16.6639C4.0643 16.305 4.62984 16.2688 5.02431 16.5799C8.29313 19.2193 13.0265 18.9679 15.9973 15.9971C18.9682 13.0262 19.2196 8.29289 16.5801 5.02406C16.269 4.62959 16.3052 4.06405 16.6642 3.71252L17.0873 3.28834C17.2916 3.08753 17.5712 2.98253 17.8572 2.9993C18.1431 3.01607 18.4086 3.15306 18.588 3.37638C22.0691 7.67862 21.7413 13.9146 17.8283 17.8281C13.9152 21.7417 7.67932 22.0703 3.37662 18.5897C3.15331 18.4104 3.01632 18.1449 2.99954 17.8589C2.98277 17.573 3.08777 17.2933 3.28858 17.0891L3.71276 16.6639Z" stroke="#FF7C00" stroke-width="1.5" stroke-linecap="round" stroke-linejoin="round"/>
<path d="M8.17041 12.2061C9.28483 13.3205 11.0917 13.3205 12.2061 12.2061C13.3205 11.0917 13.3205 9.28483 12.2061 8.17041" stroke="#FF7C00" stroke-width="1.5" stroke-linecap="round" stroke-linejoin="round"/>
<path d="M16.664 3.71252L3.71265 16.6639" stroke="#FF7C00" stroke-width="1.5" stroke-linecap="round" stroke-linejoin="round"/>
<path d="M13.0415 10.4994H17.6864" stroke="#FF7C00" stroke-width="1.5" stroke-linecap="round" stroke-linejoin="round"/>
</svg>
