<svg width="49" height="64" viewBox="0 0 49 64" fill="none" xmlns="http://www.w3.org/2000/svg">
<path d="M17.9097 0.953979C16.6295 0.953979 15.5917 1.9918 15.5917 3.27202V5.59005H2.45616C1.17594 5.59005 0.138123 6.62787 0.138123 7.90809C0.138123 9.18831 1.17594 10.2261 2.45616 10.2261H45.7262C47.0064 10.2261 48.0442 9.18831 48.0442 7.90809C48.0442 6.62787 47.0064 5.59005 45.7262 5.59005H32.5906V3.27202C32.5906 1.9918 31.5528 0.953979 30.2726 0.953979H17.9097Z" fill="#DF4B4B"/>
<path d="M17.9097 26.916C19.1899 26.916 20.2278 27.9538 20.2278 29.234L20.2278 50.869C20.2278 52.1492 19.1899 53.187 17.9097 53.187C16.6295 53.187 15.5917 52.1492 15.5917 50.869L15.5917 29.234C15.5917 27.9538 16.6295 26.916 17.9097 26.916Z" fill="#DF4B4B"/>
<path d="M32.5906 29.234C32.5906 27.9538 31.5528 26.916 30.2726 26.916C28.9924 26.916 27.9546 27.9538 27.9546 29.234V50.869C27.9546 52.1492 28.9924 53.187 30.2726 53.187C31.5528 53.187 32.5906 52.1492 32.5906 50.869V29.234Z" fill="#DF4B4B"/>
<path fill-rule="evenodd" clip-rule="evenodd" d="M5.52037 18.4696C5.65081 17.2957 6.64308 16.4076 7.82423 16.4076H40.3581C41.5392 16.4076 42.5315 17.2957 42.6619 18.4696L43.2805 24.0371C44.4019 34.1292 44.4019 44.3146 43.2805 54.4068L43.2196 54.9549C42.7745 58.9609 39.6698 62.1552 35.678 62.7141C27.9909 63.7903 20.1914 63.7903 12.5043 62.7141C8.51254 62.1552 5.40778 58.9609 4.96266 54.9549L4.90176 54.4068C3.78041 44.3146 3.78041 34.1292 4.90177 24.0371L5.52037 18.4696ZM9.89897 21.0436L9.50948 24.549C8.42594 34.3009 8.42594 44.1429 9.50948 53.8948L9.57038 54.4429C9.78148 56.3428 11.254 57.8578 13.1471 58.1228C20.4077 59.1393 27.7746 59.1393 35.0352 58.1228C36.9283 57.8578 38.4008 56.3428 38.6119 54.4429L38.6728 53.8948C39.7564 44.1429 39.7564 34.3009 38.6728 24.549L38.2833 21.0436H9.89897Z" fill="#DF4B4B"/>
</svg>
