<svg width="75" height="75" viewBox="0 0 75 75" fill="none" xmlns="http://www.w3.org/2000/svg">
<g opacity="0.4">
<path d="M26.386 26.5571C27.2913 25.6518 28.759 25.6518 29.6642 26.5571L37.2973 34.1901L44.9303 26.5571C45.8356 25.6518 47.3033 25.6518 48.2085 26.5571C49.1138 27.4623 49.1138 28.93 48.2085 29.8353L40.5755 37.4683L48.2085 45.1013C49.1137 46.0066 49.1137 47.4743 48.2085 48.3795C47.3032 49.2848 45.8355 49.2848 44.9303 48.3795L37.2973 40.7465L29.6642 48.3796C28.759 49.2848 27.2913 49.2848 26.386 48.3796C25.4808 47.4743 25.4808 46.0066 26.386 45.1014L34.0191 37.4683L26.386 29.8353C25.4808 28.93 25.4808 27.4623 26.386 26.5571Z" fill="black"/>
<path fill-rule="evenodd" clip-rule="evenodd" d="M22.8226 12.0279C32.3654 10.9614 42.229 10.9614 51.7718 12.0279C57.4166 12.6588 61.9751 17.1052 62.6391 22.7828C63.7803 32.5399 63.7803 42.3968 62.6391 52.1539C61.9751 57.8315 57.4166 62.2779 51.7718 62.9088C42.229 63.9753 32.3654 63.9753 22.8226 62.9088C17.1778 62.2779 12.6193 57.8315 11.9553 52.1539C10.8141 42.3968 10.8141 32.5399 11.9553 22.7828C12.6193 17.1052 17.1778 12.6588 22.8226 12.0279ZM51.2569 16.6353C42.0563 15.607 32.5381 15.607 23.3376 16.6353C19.8004 17.0306 16.9692 19.8223 16.5599 23.3213C15.4606 32.7206 15.4606 42.216 16.5599 51.6154C16.9692 55.1144 19.8004 57.9061 23.3375 58.3014C32.5381 59.3297 42.0563 59.3297 51.2569 58.3014C54.794 57.9061 57.6252 55.1144 58.0345 51.6154C59.1338 42.2161 59.1338 32.7206 58.0345 23.3213C57.6252 19.8223 54.794 17.0306 51.2569 16.6353Z" fill="black"/>
</g>
</svg>
