<svg width="24" height="24" viewBox="0 0 24 24" fill="none" xmlns="http://www.w3.org/2000/svg">
<path fill-rule="evenodd" clip-rule="evenodd" d="M16.7016 8.88474V8.88474C15.4711 11.3457 13.5397 13.3873 11.1508 14.7524V14.7524C9.04506 15.9557 6.66172 16.5887 4.23639 16.5887H4.05688C3.60012 16.5887 3.19227 16.8747 3.03678 17.3042C2.88128 17.7337 3.01145 18.2146 3.36235 18.507V18.507C5.65414 20.4168 8.63524 21.2908 11.5954 20.9208L11.5996 20.9203C13.6965 20.6582 15.67 19.7851 17.2745 18.4099V18.4099C20.0311 16.0471 21.4122 12.4547 20.9482 8.85372V8.85372C20.789 7.61781 20.7092 6.37297 20.7091 5.12684V4.03948C20.7091 3.48696 20.2612 3.03906 19.7087 3.03906H18.7622C18.2097 3.03906 17.7618 3.48696 17.7618 4.03948V4.39347C17.7618 5.95256 17.3988 7.49024 16.7016 8.88474Z" stroke="#FF7C00" stroke-width="1.5" stroke-linecap="round" stroke-linejoin="round"/>
<path d="M8.86889 15.7916L8.55876 15.7216C6.57932 15.2838 4.86768 14.0498 3.82679 12.3102C3.64156 12.0016 3.63565 11.6175 3.8113 11.3034C3.98695 10.9893 4.31728 10.7932 4.67715 10.7895C4.79304 10.7908 4.90794 10.8111 5.01729 10.8495C6.60181 11.4105 8.30522 11.5484 9.95934 11.2497L10.2595 11.1897C12.3545 10.8096 14.29 9.81748 15.8218 8.3385C16.6536 7.54429 17.2964 6.57331 17.7026 5.49731" stroke="#FF7C00" stroke-width="1.5" stroke-linecap="round" stroke-linejoin="round"/>
</svg>
