<svg width="24" height="24" viewBox="0 0 24 24" fill="none" xmlns="http://www.w3.org/2000/svg">
<path fill-rule="evenodd" clip-rule="evenodd" d="M13.1055 18.5457L15.5286 17.8534C16.441 17.5931 17.2053 16.9676 17.641 16.1247C18.0766 15.2818 18.1449 14.2965 17.8295 13.4016L17.7505 13.1795L18.5048 11.938C19.3912 10.4759 19.0695 8.5848 17.7495 7.49812V6.62376C17.7507 4.91245 16.6696 3.38751 15.0544 2.82218L13.3296 2.22193C12.4688 1.92082 11.5313 1.92082 10.6705 2.22193L8.94582 2.82218C7.33058 3.38751 6.24948 4.91245 6.2507 6.62376V7.49812C4.93136 8.58535 4.6105 10.4764 5.49738 11.938L6.2517 13.1795L6.17266 13.4016C5.85733 14.2965 5.92554 15.2818 6.36119 16.1247C6.79683 16.9676 7.56122 17.5931 8.47362 17.8534L10.8966 18.5457C11.6186 18.7514 12.3836 18.7514 13.1055 18.5457Z" stroke="#FF7C00" stroke-width="1.5" stroke-linecap="round" stroke-linejoin="round"/>
<path d="M12.0002 21.0038C12.6675 18.7171 12.6675 16.2875 12.0002 14.0008C11.3329 11.7142 11.3329 9.28454 12.0002 6.99792" stroke="#FF7C00" stroke-width="1.5" stroke-linecap="round" stroke-linejoin="round"/>
</svg>
