<svg width="47" height="49" viewBox="0 0 47 49" fill="none" xmlns="http://www.w3.org/2000/svg">
<g filter="url(#filter0_d_9_538)">
<path fill-rule="evenodd" clip-rule="evenodd" d="M16.1558 17.6248C16.1558 13.569 19.4437 10.2811 23.4996 10.2811C27.5554 10.2811 30.8433 13.569 30.8433 17.6248C30.8433 21.6807 27.5554 24.9686 23.4996 24.9686C19.4437 24.9686 16.1558 21.6807 16.1558 17.6248ZM23.4996 13.2186C21.0661 13.2186 19.0933 15.1913 19.0933 17.6248C19.0933 20.0584 21.0661 22.0311 23.4996 22.0311C25.9331 22.0311 27.9058 20.0584 27.9058 17.6248C27.9058 15.1913 25.9331 13.2186 23.4996 13.2186Z" fill="white"/>
<path fill-rule="evenodd" clip-rule="evenodd" d="M10.685 15.9157C11.2211 9.41165 16.6563 4.4061 23.1824 4.4061H23.8168C30.3429 4.4061 35.778 9.41165 36.3141 15.9157C36.6015 19.4021 35.5246 22.8639 33.3102 25.572L26.2704 34.1815C24.8383 35.9329 22.1608 35.9329 20.7288 34.1815L13.6889 25.572C11.4746 22.8639 10.3977 19.4021 10.685 15.9157ZM23.1824 7.3436C18.185 7.3436 14.0231 11.1766 13.6126 16.157C13.3877 18.8849 14.2304 21.5936 15.963 23.7125L23.0028 32.322C23.2596 32.636 23.7396 32.636 23.9963 32.322L31.0361 23.7125C32.7688 21.5936 33.6114 18.8849 33.3865 16.157C32.976 11.1766 28.8141 7.3436 23.8168 7.3436H23.1824Z" fill="white"/>
<path d="M15.0216 31.99C15.3844 31.2645 15.0903 30.3822 14.3647 30.0195C13.6392 29.6567 12.757 29.9508 12.3942 30.6763L8.47754 38.5097C8.24989 38.965 8.27422 39.5057 8.54184 39.9387C8.80945 40.3717 9.28219 40.6353 9.79123 40.6353H37.2079C37.7169 40.6353 38.1897 40.3717 38.4573 39.9387C38.7249 39.5057 38.7492 38.965 38.5216 38.5097L34.6049 30.6763C34.2422 29.9508 33.3599 29.6567 32.6344 30.0195C31.9089 30.3822 31.6148 31.2645 31.9775 31.99L34.8314 37.6978H12.1677L15.0216 31.99Z" fill="white"/>
</g>
<defs>
<filter id="filter0_d_9_538" x="-4" y="0" width="55" height="55" filterUnits="userSpaceOnUse" color-interpolation-filters="sRGB">
<feFlood flood-opacity="0" result="BackgroundImageFix"/>
<feColorMatrix in="SourceAlpha" type="matrix" values="0 0 0 0 0 0 0 0 0 0 0 0 0 0 0 0 0 0 127 0" result="hardAlpha"/>
<feOffset dy="4"/>
<feGaussianBlur stdDeviation="2"/>
<feComposite in2="hardAlpha" operator="out"/>
<feColorMatrix type="matrix" values="0 0 0 0 0 0 0 0 0 0 0 0 0 0 0 0 0 0 0.25 0"/>
<feBlend mode="normal" in2="BackgroundImageFix" result="effect1_dropShadow_9_538"/>
<feBlend mode="normal" in="SourceGraphic" in2="effect1_dropShadow_9_538" result="shape"/>
</filter>
</defs>
</svg>
