<svg width="428" height="428" viewBox="0 0 428 428" fill="none" xmlns="http://www.w3.org/2000/svg">
<path d="M133.446 93.792C113.037 96.073 96.7011 112.181 94.3398 132.37C87.9967 186.604 87.9967 241.392 94.3398 295.626C96.7011 315.815 113.037 331.923 133.446 334.204C186.533 340.137 241.453 340.137 294.54 334.204C314.949 331.923 331.285 315.815 333.647 295.626C338.204 256.658 339.487 217.403 337.495 178.273C337.444 177.263 337.821 176.277 338.537 175.562L357.061 157.037C359.206 154.893 362.869 156.233 363.097 159.257C366.593 205.711 365.633 252.417 360.215 298.733C356.384 331.493 330.082 357.148 297.511 360.789C242.45 366.943 185.537 366.943 130.475 360.789C97.9047 357.148 71.6024 331.493 67.7709 298.733C61.1863 242.435 61.1863 185.561 67.7709 129.263C71.6024 96.5035 97.9048 70.8477 130.475 67.2075C185.537 61.0536 242.45 61.0536 297.511 67.2075C308.983 68.4896 319.676 72.5026 328.885 78.5951C330.697 79.7939 330.876 82.3412 329.34 83.8775L315.022 98.1956C313.851 99.3668 312.034 99.5638 310.574 98.7815C305.699 96.169 300.28 94.4335 294.54 93.792C241.453 87.8587 186.533 87.8587 133.446 93.792Z" fill="#1AC034"/>
<path d="M375.034 107.539C380.257 102.316 380.257 93.8471 375.034 88.6239C369.811 83.4006 361.342 83.4006 356.119 88.6239L205.076 239.666L161.034 195.624C155.811 190.401 147.342 190.401 142.119 195.624C136.895 200.847 136.895 209.316 142.119 214.539L195.619 268.039C200.842 273.262 209.311 273.262 214.534 268.039L375.034 107.539Z" fill="#1AC034"/>
</svg>
