<svg width="24" height="24" viewBox="0 0 24 24" fill="none" xmlns="http://www.w3.org/2000/svg">
<path d="M7.99854 15.5497C10.8114 13.9397 13.2107 11.6968 15.0064 8.99878" stroke="#FF7C00" stroke-width="1.5" stroke-linecap="round" stroke-linejoin="round"/>
<path d="M18.2258 4.58741L18.5404 4.06674C18.8927 3.48361 19.4936 3.09491 20.1699 3.01268C20.8461 2.93045 21.5227 3.16384 22.0044 3.64556" stroke="#FF7C00" stroke-width="1.5" stroke-linecap="round" stroke-linejoin="round"/>
<path fill-rule="evenodd" clip-rule="evenodd" d="M17.6431 4.31462V4.31462C19.5055 5.11411 20.4452 7.20689 19.8053 9.13V9.13C18.7801 12.2105 17.0451 15.0068 14.7402 17.2933L14.6379 17.3946C12.3073 19.7066 9.15756 21.0038 5.87478 21.0038V21.0038C3.73251 21.0038 1.99585 19.2672 1.99585 17.1249V17.1249C1.99585 15.6486 2.83383 14.3003 4.15756 13.6467V13.6467C7.5101 11.9915 10.3664 9.48082 12.438 6.36829L12.8578 5.73755C13.9006 4.17074 15.9136 3.57217 17.6431 4.31462Z" stroke="#FF7C00" stroke-width="1.5" stroke-linecap="round" stroke-linejoin="round"/>
</svg>
